<svg version="1.1" xmlns="http://www.w3.org/2000/svg" viewBox="540 230 1040 620" preserveAspectRatio="xMidYMid meet">
<path fill="rgb(162,93,57)" d="M 1473.36 480.525 C 1469.43 483.066 1466.04 485.221 1461.95 487.482 C 1457.68 487.125 1459.08 487.775 1456.13 485.451 C 1451.76 473.038 1485.51 439.613 1495.87 432.891 C 1514.4 420.869 1535.65 429.9 1545.48 449.662 C 1577.28 513.64 1578.4 606.798 1562.32 675.575 C 1550.39 726.651 1520.84 784.256 1476.4 812.81 C 1446.14 831.096 1423.73 825.624 1392.26 817.628 C 1378.25 813.334 1360.67 808.653 1346.15 808.625 C 1320.99 808.577 1312.85 821.787 1296.79 837.801 L 1294.52 836.552 C 1293.91 835.615 1292.69 833.45 1292.83 832.48 C 1300.25 769.424 1353.1 736.367 1413.41 753.008 C 1480.24 771.448 1513.49 781.138 1523.19 697.736 C 1528.2 654.658 1527.7 627.791 1521.4 584.433 C 1504.74 619.722 1478.99 649.946 1446.8 672.006 C 1419.98 690.264 1381 704.844 1355.04 675.741 C 1329.34 646.937 1342.02 596.947 1344.74 561.964 C 1345.91 548.456 1345.49 534.859 1343.5 521.448 C 1342.08 512.186 1340.53 503.151 1335.02 495.961 C 1314.81 469.553 1302.49 489.604 1293.84 487.971 C 1286.26 481.031 1303.17 463.936 1308.09 458.376 C 1320.11 444.806 1332.36 431.397 1350.7 427.265 C 1351.62 427.206 1352.53 427.16 1353.45 427.125 C 1362.87 426.782 1375.67 430.451 1382.02 437.568 C 1414.3 476.348 1392.26 534.748 1394.68 580.654 C 1396.1 607.504 1406.82 637.251 1439.24 634.258 C 1479.18 630.573 1511.42 583.114 1507.86 544.402 C 1505.44 518.166 1493.26 497.607 1473.36 480.525 z"/>
<path fill="rgb(162,93,57)" d="M 1264.4 409.7 C 1268 410.117 1270.09 410.495 1273.08 412.592 C 1274.32 415.866 1260.23 453.618 1257.31 459.638 C 1245.24 484.503 1225.96 692.665 1298.83 620.28 L 1307.39 629.561 C 1295.21 650.675 1258.99 693.899 1232.13 693.292 C 1192.98 692.408 1194.16 630.132 1193.77 602.375 C 1180.83 624.059 1175.12 632.708 1158.7 651.071 C 1157.64 652.317 1156.54 653.526 1155.39 654.696 C 1137.41 673.177 1114.27 691.697 1087.19 691.907 C 1072.98 692.155 1059.28 686.639 1049.21 676.617 C 1034.96 662.476 1030.45 642.978 1030.43 623.522 C 1030.37 569.164 1063.77 518.743 1100.24 481.143 C 1129.17 451.323 1162.91 428.213 1205.68 428.766 C 1216.39 428.904 1227.3 431.869 1238.2 431.952 C 1252.53 432.061 1254.7 420.042 1264.4 409.7 z"/>
<path fill="rgb(243,242,233)" d="M 1153.35 484.359 C 1172.65 482.731 1191.14 487.29 1209.57 492.685 C 1207.58 515.951 1192.49 560.291 1183.29 582.819 C 1174.56 604.177 1160.99 622.929 1138.62 631.551 C 1072.75 647.962 1072.06 544.425 1103.28 511.158 C 1120.15 493.175 1129.2 487.383 1153.35 484.359 z"/>
<path fill="rgb(162,93,57)" d="M 706.757 282.517 C 743.566 301.13 791.543 328.739 834.32 308.604 C 842.324 304.837 844.428 296.081 849.01 294.144 C 851.072 294.971 853.495 295.897 854.229 298.255 C 861.668 323.085 853.926 358.839 829.775 372.063 C 782.965 397.694 734.869 370.047 690.001 358.808 C 677.989 363.929 668.013 368.969 657.373 376.443 C 565.707 440.832 597.598 609.625 713.024 625.169 C 758.799 631.333 800.319 615.327 836.558 588.852 C 851.711 577.812 862.569 565.245 874.871 551.381 C 878.01 552.927 881.078 554.001 882.915 556.909 C 883.938 567.771 854.53 605.944 847.392 614.993 C 756.392 730.356 570.445 718.353 556.239 551.455 C 549.374 480.307 579.016 412.735 629.032 362.872 C 655.707 336.279 682.298 311.897 706.757 282.517 z"/>
<path fill="rgb(162,93,57)" d="M 918.645 242.232 C 920.265 242.138 921.883 242.069 923.506 242.115 C 932.364 242.365 941.325 248.518 947.079 254.873 C 992.554 305.104 961.234 485.96 958.272 555.748 C 957.342 577.665 957.165 610.447 973.356 627.625 C 977.825 632.367 984.584 635.036 991.08 635.099 C 999.252 635.179 1005.22 630.45 1010.86 625.073 L 1019.74 632.938 C 1012.68 645.719 987.11 672.287 976.324 681.826 C 973.015 684.411 970.562 686.298 966.941 688.381 C 958.769 693.08 948.785 694.168 939.929 691.353 C 889.872 675.437 905.761 571.64 908.206 531.038 C 910.212 507.985 912.586 484.918 914.052 461.822 C 914.52 454.441 915.075 446.537 915.118 439.145 C 915.36 397.779 915.91 352.274 898.625 313.972 C 892.572 300.56 868.031 312.774 877.477 292.374 C 884.603 276.984 903.137 248.936 918.645 242.232 z"/>
<path fill="rgb(162,93,57)" d="M 711.469 472.074 C 726.959 470.565 740.776 481.809 742.447 497.282 C 744.117 512.756 733.018 526.69 717.563 528.522 C 707.421 529.724 697.415 525.386 691.359 517.161 C 685.304 508.937 684.133 498.093 688.294 488.766 C 692.454 479.438 701.303 473.064 711.469 472.074 z"/>
<path fill="rgb(162,93,57)" d="M 1127.78 725.038 C 1141.15 722.535 1154 731.38 1156.44 744.759 C 1158.88 758.138 1149.97 770.948 1136.58 773.319 C 1123.28 775.674 1110.58 766.841 1108.16 753.555 C 1105.74 740.268 1114.51 727.524 1127.78 725.038 z"/>
<path fill="rgb(162,93,57)" d="M 1198.72 725.087 C 1212.04 722.605 1224.85 731.411 1227.3 744.739 C 1229.76 758.067 1220.92 770.855 1207.59 773.277 C 1194.3 775.692 1181.56 766.892 1179.11 753.605 C 1176.67 740.319 1185.44 727.561 1198.72 725.087 z"/>
</svg>
